<mxfile host="app.diagrams.net" modified="2024-06-06T12:07:57.470Z" agent="Mozilla/5.0 (Windows NT 10.0; Win64; x64) AppleWebKit/537.36 (KHTML, like Gecko) Chrome/125.0.0.0 Safari/537.36 Edg/125.0.0.0" etag="K927kcZboWePbuex58_l" version="24.4.15" type="device">
  <diagram name="Side-1" id="EmNSNZuSTvsAi7yGus28">
    <mxGraphModel dx="1386" dy="879" grid="1" gridSize="10" guides="1" tooltips="1" connect="1" arrows="1" fold="1" page="1" pageScale="1" pageWidth="827" pageHeight="1169" math="0" shadow="0">
      <root>
        <mxCell id="0" />
        <mxCell id="1" parent="0" />
        <mxCell id="oCF1eo-7Pd1A6ewJWuHW-16" style="edgeStyle=orthogonalEdgeStyle;rounded=0;orthogonalLoop=1;jettySize=auto;html=1;entryX=1;entryY=0.5;entryDx=0;entryDy=0;" edge="1" parent="1" source="oCF1eo-7Pd1A6ewJWuHW-1" target="ILVo8w2cHF-E_sm-6Jmi-12">
          <mxGeometry relative="1" as="geometry">
            <Array as="points">
              <mxPoint x="760" y="1400" />
              <mxPoint x="760" y="380" />
            </Array>
          </mxGeometry>
        </mxCell>
        <mxCell id="oCF1eo-7Pd1A6ewJWuHW-1" value="" style="rounded=0;whiteSpace=wrap;html=1;dashed=1;" vertex="1" parent="1">
          <mxGeometry x="325" y="1340" width="150" height="120" as="geometry" />
        </mxCell>
        <mxCell id="ILVo8w2cHF-E_sm-6Jmi-4" value="" style="edgeStyle=orthogonalEdgeStyle;rounded=0;orthogonalLoop=1;jettySize=auto;html=1;" parent="1" source="ILVo8w2cHF-E_sm-6Jmi-1" target="ILVo8w2cHF-E_sm-6Jmi-2" edge="1">
          <mxGeometry relative="1" as="geometry" />
        </mxCell>
        <mxCell id="ILVo8w2cHF-E_sm-6Jmi-1" value="&lt;font style=&quot;font-size: 15px;&quot;&gt;Start&lt;/font&gt;" style="rounded=1;whiteSpace=wrap;html=1;fillColor=#d5e8d4;strokeColor=#82b366;" parent="1" vertex="1">
          <mxGeometry x="340" y="80" width="120" height="60" as="geometry" />
        </mxCell>
        <mxCell id="ILVo8w2cHF-E_sm-6Jmi-5" value="" style="edgeStyle=orthogonalEdgeStyle;rounded=0;orthogonalLoop=1;jettySize=auto;html=1;" parent="1" source="ILVo8w2cHF-E_sm-6Jmi-2" target="ILVo8w2cHF-E_sm-6Jmi-3" edge="1">
          <mxGeometry relative="1" as="geometry" />
        </mxCell>
        <mxCell id="ILVo8w2cHF-E_sm-6Jmi-2" value="InitAllApplications" style="rounded=1;whiteSpace=wrap;html=1;" parent="1" vertex="1">
          <mxGeometry x="340" y="170" width="120" height="60" as="geometry" />
        </mxCell>
        <mxCell id="ILVo8w2cHF-E_sm-6Jmi-9" value="" style="edgeStyle=orthogonalEdgeStyle;rounded=0;orthogonalLoop=1;jettySize=auto;html=1;" parent="1" source="ILVo8w2cHF-E_sm-6Jmi-3" edge="1">
          <mxGeometry relative="1" as="geometry">
            <mxPoint x="400" y="350" as="targetPoint" />
          </mxGeometry>
        </mxCell>
        <mxCell id="ILVo8w2cHF-E_sm-6Jmi-3" value="NovaLogin" style="rounded=1;whiteSpace=wrap;html=1;" parent="1" vertex="1">
          <mxGeometry x="340" y="260" width="120" height="60" as="geometry" />
        </mxCell>
        <mxCell id="tiw_ZWmf1H6Ed3Wsa5TR-1" value="" style="edgeStyle=orthogonalEdgeStyle;rounded=0;orthogonalLoop=1;jettySize=auto;html=1;" parent="1" source="ILVo8w2cHF-E_sm-6Jmi-12" target="ILVo8w2cHF-E_sm-6Jmi-26" edge="1">
          <mxGeometry relative="1" as="geometry" />
        </mxCell>
        <mxCell id="tiw_ZWmf1H6Ed3Wsa5TR-3" value="YES" style="edgeLabel;html=1;align=center;verticalAlign=middle;resizable=0;points=[];" parent="tiw_ZWmf1H6Ed3Wsa5TR-1" vertex="1" connectable="0">
          <mxGeometry x="0.32" y="-2" relative="1" as="geometry">
            <mxPoint as="offset" />
          </mxGeometry>
        </mxCell>
        <mxCell id="tiw_ZWmf1H6Ed3Wsa5TR-57" value="" style="edgeStyle=orthogonalEdgeStyle;rounded=0;orthogonalLoop=1;jettySize=auto;html=1;" parent="1" source="ILVo8w2cHF-E_sm-6Jmi-12" target="tiw_ZWmf1H6Ed3Wsa5TR-56" edge="1">
          <mxGeometry relative="1" as="geometry" />
        </mxCell>
        <mxCell id="ILVo8w2cHF-E_sm-6Jmi-12" value="DataInQueue?" style="rhombus;whiteSpace=wrap;html=1;fillColor=#fff2cc;strokeColor=#d6b656;" parent="1" vertex="1">
          <mxGeometry x="340" y="350" width="120" height="60" as="geometry" />
        </mxCell>
        <mxCell id="oCF1eo-7Pd1A6ewJWuHW-4" value="" style="edgeStyle=orthogonalEdgeStyle;rounded=0;orthogonalLoop=1;jettySize=auto;html=1;" edge="1" parent="1" source="ILVo8w2cHF-E_sm-6Jmi-26" target="tiw_ZWmf1H6Ed3Wsa5TR-8">
          <mxGeometry relative="1" as="geometry" />
        </mxCell>
        <mxCell id="ILVo8w2cHF-E_sm-6Jmi-26" value="GetTransactionItems" style="rounded=1;whiteSpace=wrap;html=1;" parent="1" vertex="1">
          <mxGeometry x="340" y="440" width="120" height="60" as="geometry" />
        </mxCell>
        <mxCell id="tiw_ZWmf1H6Ed3Wsa5TR-12" value="" style="edgeStyle=orthogonalEdgeStyle;rounded=0;orthogonalLoop=1;jettySize=auto;html=1;" parent="1" target="tiw_ZWmf1H6Ed3Wsa5TR-11" edge="1">
          <mxGeometry relative="1" as="geometry">
            <mxPoint x="400" y="590" as="sourcePoint" />
          </mxGeometry>
        </mxCell>
        <mxCell id="tiw_ZWmf1H6Ed3Wsa5TR-18" value="" style="edgeStyle=orthogonalEdgeStyle;rounded=0;orthogonalLoop=1;jettySize=auto;html=1;" parent="1" source="ILVo8w2cHF-E_sm-6Jmi-37" target="tiw_ZWmf1H6Ed3Wsa5TR-17" edge="1">
          <mxGeometry relative="1" as="geometry" />
        </mxCell>
        <mxCell id="tiw_ZWmf1H6Ed3Wsa5TR-20" value="Yes" style="edgeLabel;html=1;align=center;verticalAlign=middle;resizable=0;points=[];" parent="tiw_ZWmf1H6Ed3Wsa5TR-18" vertex="1" connectable="0">
          <mxGeometry y="-4" relative="1" as="geometry">
            <mxPoint as="offset" />
          </mxGeometry>
        </mxCell>
        <mxCell id="9xVxmHGgAqTydOeY11Fq-2" value="" style="edgeStyle=orthogonalEdgeStyle;rounded=0;orthogonalLoop=1;jettySize=auto;html=1;" parent="1" source="ILVo8w2cHF-E_sm-6Jmi-37" target="9xVxmHGgAqTydOeY11Fq-1" edge="1">
          <mxGeometry relative="1" as="geometry" />
        </mxCell>
        <mxCell id="9xVxmHGgAqTydOeY11Fq-8" value="No" style="edgeLabel;html=1;align=center;verticalAlign=middle;resizable=0;points=[];" parent="9xVxmHGgAqTydOeY11Fq-2" vertex="1" connectable="0">
          <mxGeometry x="-0.1707" relative="1" as="geometry">
            <mxPoint as="offset" />
          </mxGeometry>
        </mxCell>
        <mxCell id="ILVo8w2cHF-E_sm-6Jmi-37" value="IsDocumentOn&lt;br&gt;Blacklist?" style="rhombus;whiteSpace=wrap;html=1;fillColor=#fff2cc;strokeColor=#d6b656;" parent="1" vertex="1">
          <mxGeometry x="340" y="800" width="120" height="60" as="geometry" />
        </mxCell>
        <mxCell id="ILVo8w2cHF-E_sm-6Jmi-41" value="LogInfoToDataBase" style="rounded=1;whiteSpace=wrap;html=1;" parent="1" vertex="1">
          <mxGeometry x="340" y="1370" width="120" height="60" as="geometry" />
        </mxCell>
        <mxCell id="tiw_ZWmf1H6Ed3Wsa5TR-8" value="GetCaseAnd-&lt;br&gt;DocumentInfo" style="rounded=1;whiteSpace=wrap;html=1;" parent="1" vertex="1">
          <mxGeometry x="340" y="530" width="120" height="60" as="geometry" />
        </mxCell>
        <mxCell id="tiw_ZWmf1H6Ed3Wsa5TR-14" value="" style="edgeStyle=orthogonalEdgeStyle;rounded=0;orthogonalLoop=1;jettySize=auto;html=1;" parent="1" source="tiw_ZWmf1H6Ed3Wsa5TR-11" target="tiw_ZWmf1H6Ed3Wsa5TR-13" edge="1">
          <mxGeometry relative="1" as="geometry" />
        </mxCell>
        <mxCell id="tiw_ZWmf1H6Ed3Wsa5TR-11" value="GetCaseUuid" style="rounded=1;whiteSpace=wrap;html=1;" parent="1" vertex="1">
          <mxGeometry x="340" y="620" width="120" height="60" as="geometry" />
        </mxCell>
        <mxCell id="tiw_ZWmf1H6Ed3Wsa5TR-16" value="" style="edgeStyle=orthogonalEdgeStyle;rounded=0;orthogonalLoop=1;jettySize=auto;html=1;" parent="1" source="tiw_ZWmf1H6Ed3Wsa5TR-13" target="ILVo8w2cHF-E_sm-6Jmi-37" edge="1">
          <mxGeometry relative="1" as="geometry" />
        </mxCell>
        <mxCell id="9xVxmHGgAqTydOeY11Fq-12" style="edgeStyle=orthogonalEdgeStyle;rounded=0;orthogonalLoop=1;jettySize=auto;html=1;endArrow=none;endFill=0;dashed=1;strokeWidth=2;" parent="1" source="tiw_ZWmf1H6Ed3Wsa5TR-13" edge="1">
          <mxGeometry relative="1" as="geometry">
            <mxPoint x="650" y="990" as="targetPoint" />
          </mxGeometry>
        </mxCell>
        <mxCell id="9xVxmHGgAqTydOeY11Fq-13" style="edgeStyle=orthogonalEdgeStyle;rounded=0;orthogonalLoop=1;jettySize=auto;html=1;endArrow=none;endFill=0;dashed=1;strokeWidth=2;" parent="1" source="tiw_ZWmf1H6Ed3Wsa5TR-13" edge="1">
          <mxGeometry relative="1" as="geometry">
            <mxPoint x="170" y="990" as="targetPoint" />
          </mxGeometry>
        </mxCell>
        <mxCell id="tiw_ZWmf1H6Ed3Wsa5TR-13" value="GetDocumentInfo_New" style="rounded=1;whiteSpace=wrap;html=1;" parent="1" vertex="1">
          <mxGeometry x="340" y="710" width="120" height="60" as="geometry" />
        </mxCell>
        <mxCell id="tiw_ZWmf1H6Ed3Wsa5TR-17" value="Remove Document&lt;br&gt;form list" style="rounded=1;whiteSpace=wrap;html=1;fillColor=#ffe6cc;strokeColor=#d79b00;" parent="1" vertex="1">
          <mxGeometry x="510" y="800" width="120" height="60" as="geometry" />
        </mxCell>
        <mxCell id="9xVxmHGgAqTydOeY11Fq-18" value="" style="edgeStyle=orthogonalEdgeStyle;rounded=0;orthogonalLoop=1;jettySize=auto;html=1;" parent="1" source="tiw_ZWmf1H6Ed3Wsa5TR-31" target="9xVxmHGgAqTydOeY11Fq-17" edge="1">
          <mxGeometry relative="1" as="geometry" />
        </mxCell>
        <mxCell id="tiw_ZWmf1H6Ed3Wsa5TR-31" value="SendDocumentsTo-&lt;br&gt;Filarkiv" style="rounded=1;whiteSpace=wrap;html=1;" parent="1" vertex="1">
          <mxGeometry x="340" y="1000" width="120" height="60" as="geometry" />
        </mxCell>
        <mxCell id="tiw_ZWmf1H6Ed3Wsa5TR-56" value="&lt;font style=&quot;font-size: 15px;&quot;&gt;End&lt;/font&gt;" style="rounded=1;whiteSpace=wrap;html=1;fillColor=#f8cecc;strokeColor=#b85450;" parent="1" vertex="1">
          <mxGeometry x="180" y="350" width="120" height="60" as="geometry" />
        </mxCell>
        <mxCell id="9xVxmHGgAqTydOeY11Fq-3" value="" style="edgeStyle=orthogonalEdgeStyle;rounded=0;orthogonalLoop=1;jettySize=auto;html=1;" parent="1" source="9xVxmHGgAqTydOeY11Fq-1" edge="1">
          <mxGeometry relative="1" as="geometry">
            <mxPoint x="400" y="1000" as="targetPoint" />
          </mxGeometry>
        </mxCell>
        <mxCell id="9xVxmHGgAqTydOeY11Fq-7" value="No" style="edgeLabel;html=1;align=center;verticalAlign=middle;resizable=0;points=[];" parent="9xVxmHGgAqTydOeY11Fq-3" vertex="1" connectable="0">
          <mxGeometry x="-0.2683" relative="1" as="geometry">
            <mxPoint as="offset" />
          </mxGeometry>
        </mxCell>
        <mxCell id="9xVxmHGgAqTydOeY11Fq-5" value="" style="edgeStyle=orthogonalEdgeStyle;rounded=0;orthogonalLoop=1;jettySize=auto;html=1;" parent="1" source="9xVxmHGgAqTydOeY11Fq-1" target="9xVxmHGgAqTydOeY11Fq-4" edge="1">
          <mxGeometry relative="1" as="geometry" />
        </mxCell>
        <mxCell id="9xVxmHGgAqTydOeY11Fq-6" value="Yes" style="edgeLabel;html=1;align=center;verticalAlign=middle;resizable=0;points=[];" parent="9xVxmHGgAqTydOeY11Fq-5" vertex="1" connectable="0">
          <mxGeometry x="-0.4" y="1" relative="1" as="geometry">
            <mxPoint as="offset" />
          </mxGeometry>
        </mxCell>
        <mxCell id="9xVxmHGgAqTydOeY11Fq-1" value="Should document be classified?" style="rhombus;whiteSpace=wrap;html=1;fillColor=#fff2cc;strokeColor=#d6b656;" parent="1" vertex="1">
          <mxGeometry x="340" y="899" width="120" height="60" as="geometry" />
        </mxCell>
        <mxCell id="9xVxmHGgAqTydOeY11Fq-4" value="Update document to status &quot;Særlig følsomme&quot;" style="rounded=1;whiteSpace=wrap;html=1;fillColor=#ffe6cc;strokeColor=#d79b00;" parent="1" vertex="1">
          <mxGeometry x="510" y="899" width="120" height="60" as="geometry" />
        </mxCell>
        <mxCell id="9xVxmHGgAqTydOeY11Fq-11" value="levenshtein algorithm" style="rounded=1;whiteSpace=wrap;html=1;fillColor=#e1d5e7;strokeColor=#9673a6;" parent="1" vertex="1">
          <mxGeometry x="110" y="839" width="120" height="60" as="geometry" />
        </mxCell>
        <mxCell id="9xVxmHGgAqTydOeY11Fq-15" value="" style="endArrow=none;dashed=1;html=1;rounded=0;strokeWidth=2;" parent="1" edge="1">
          <mxGeometry width="50" height="50" relative="1" as="geometry">
            <mxPoint x="174" y="990" as="sourcePoint" />
            <mxPoint x="654" y="990" as="targetPoint" />
          </mxGeometry>
        </mxCell>
        <mxCell id="9xVxmHGgAqTydOeY11Fq-20" value="" style="edgeStyle=orthogonalEdgeStyle;rounded=0;orthogonalLoop=1;jettySize=auto;html=1;" parent="1" source="9xVxmHGgAqTydOeY11Fq-17" target="9xVxmHGgAqTydOeY11Fq-19" edge="1">
          <mxGeometry relative="1" as="geometry" />
        </mxCell>
        <mxCell id="9xVxmHGgAqTydOeY11Fq-17" value="CheckIfCaseIs&lt;div&gt;Classified&lt;/div&gt;" style="rounded=1;whiteSpace=wrap;html=1;" parent="1" vertex="1">
          <mxGeometry x="340" y="1100" width="120" height="60" as="geometry" />
        </mxCell>
        <mxCell id="9xVxmHGgAqTydOeY11Fq-21" value="" style="edgeStyle=orthogonalEdgeStyle;rounded=0;orthogonalLoop=1;jettySize=auto;html=1;entryX=0.5;entryY=0;entryDx=0;entryDy=0;" parent="1" source="9xVxmHGgAqTydOeY11Fq-19" target="oCF1eo-7Pd1A6ewJWuHW-2" edge="1">
          <mxGeometry relative="1" as="geometry">
            <mxPoint x="400" y="1300" as="targetPoint" />
          </mxGeometry>
        </mxCell>
        <mxCell id="9xVxmHGgAqTydOeY11Fq-22" value="No" style="edgeLabel;html=1;align=center;verticalAlign=middle;resizable=0;points=[];" parent="9xVxmHGgAqTydOeY11Fq-21" vertex="1" connectable="0">
          <mxGeometry x="-0.35" relative="1" as="geometry">
            <mxPoint as="offset" />
          </mxGeometry>
        </mxCell>
        <mxCell id="9xVxmHGgAqTydOeY11Fq-25" value="" style="edgeStyle=orthogonalEdgeStyle;rounded=0;orthogonalLoop=1;jettySize=auto;html=1;" parent="1" source="9xVxmHGgAqTydOeY11Fq-19" target="9xVxmHGgAqTydOeY11Fq-23" edge="1">
          <mxGeometry relative="1" as="geometry" />
        </mxCell>
        <mxCell id="9xVxmHGgAqTydOeY11Fq-27" value="Yes" style="edgeLabel;html=1;align=center;verticalAlign=middle;resizable=0;points=[];" parent="9xVxmHGgAqTydOeY11Fq-25" vertex="1" connectable="0">
          <mxGeometry x="-0.16" y="1" relative="1" as="geometry">
            <mxPoint as="offset" />
          </mxGeometry>
        </mxCell>
        <mxCell id="9xVxmHGgAqTydOeY11Fq-19" value="Is Case classified?" style="rhombus;whiteSpace=wrap;html=1;fillColor=#fff2cc;strokeColor=#d6b656;" parent="1" vertex="1">
          <mxGeometry x="340" y="1200" width="120" height="60" as="geometry" />
        </mxCell>
        <mxCell id="9xVxmHGgAqTydOeY11Fq-23" value="Update Case to classifed" style="rounded=1;whiteSpace=wrap;html=1;fillColor=#ffe6cc;strokeColor=#d79b00;" parent="1" vertex="1">
          <mxGeometry x="510" y="1200" width="120" height="60" as="geometry" />
        </mxCell>
        <mxCell id="oCF1eo-7Pd1A6ewJWuHW-2" value="Retry-scope" style="text;html=1;align=center;verticalAlign=middle;whiteSpace=wrap;rounded=0;" vertex="1" parent="1">
          <mxGeometry x="360" y="1340" width="80" height="30" as="geometry" />
        </mxCell>
        <mxCell id="oCF1eo-7Pd1A6ewJWuHW-5" value="" style="endArrow=none;dashed=1;html=1;rounded=0;strokeWidth=2;" edge="1" parent="1">
          <mxGeometry width="50" height="50" relative="1" as="geometry">
            <mxPoint x="160" y="1300" as="sourcePoint" />
            <mxPoint x="640" y="1300" as="targetPoint" />
          </mxGeometry>
        </mxCell>
        <mxCell id="oCF1eo-7Pd1A6ewJWuHW-9" value="" style="endArrow=none;dashed=1;html=1;rounded=0;strokeWidth=2;" edge="1" parent="1">
          <mxGeometry width="50" height="50" relative="1" as="geometry">
            <mxPoint x="460" y="1129.5" as="sourcePoint" />
            <mxPoint x="640" y="1130" as="targetPoint" />
          </mxGeometry>
        </mxCell>
        <mxCell id="oCF1eo-7Pd1A6ewJWuHW-10" value="" style="endArrow=none;dashed=1;html=1;rounded=0;strokeWidth=2;" edge="1" parent="1">
          <mxGeometry width="50" height="50" relative="1" as="geometry">
            <mxPoint x="640" y="1300" as="sourcePoint" />
            <mxPoint x="640" y="1130" as="targetPoint" />
          </mxGeometry>
        </mxCell>
        <mxCell id="oCF1eo-7Pd1A6ewJWuHW-11" value="" style="endArrow=none;dashed=1;html=1;rounded=0;strokeWidth=2;" edge="1" parent="1">
          <mxGeometry width="50" height="50" relative="1" as="geometry">
            <mxPoint x="160" y="1129.5" as="sourcePoint" />
            <mxPoint x="340" y="1130" as="targetPoint" />
          </mxGeometry>
        </mxCell>
        <mxCell id="oCF1eo-7Pd1A6ewJWuHW-12" value="" style="endArrow=none;dashed=1;html=1;rounded=0;strokeWidth=2;" edge="1" parent="1">
          <mxGeometry width="50" height="50" relative="1" as="geometry">
            <mxPoint x="160" y="1130" as="sourcePoint" />
            <mxPoint x="160" y="1300" as="targetPoint" />
          </mxGeometry>
        </mxCell>
        <mxCell id="oCF1eo-7Pd1A6ewJWuHW-13" value="levenshtein algorithm" style="rounded=1;whiteSpace=wrap;html=1;fillColor=#e1d5e7;strokeColor=#9673a6;" vertex="1" parent="1">
          <mxGeometry x="100" y="1180" width="120" height="60" as="geometry" />
        </mxCell>
      </root>
    </mxGraphModel>
  </diagram>
</mxfile>
